<svg xmlns="http://www.w3.org/2000/svg" viewBox="0 0 1254 1254" width="1254" height="1254" role="img" aria-label="Android inspired angular A logo">
  <g>
    <!-- Antennae and Android head. -->
    <path d="M494 228 535 307M760 228 719 307" fill="none" stroke="#78c92a" stroke-width="20" stroke-linecap="round"/>
    <path d="M450 450a177 177 0 0 1 354 0Z" fill="#78c92a"/>
    <circle cx="548" cy="372" r="19" fill="#fff"/>
    <circle cx="706" cy="372" r="19" fill="#fff"/>

    <!-- Outer angular body. -->
    <path d="M537 446h181l222 341v100L793 1035q-16 16-11-7l37-225-192-300-192 300 37 225q5 23-11 7L314 887V787Z" fill="#21313a"/>

    <!-- Side circular joints. -->
    <circle cx="396" cy="642" r="58" fill="#21313a"/>
    <circle cx="858" cy="642" r="58" fill="#21313a"/>
    <circle cx="396" cy="642" r="35" fill="none" stroke="#fff" stroke-width="10"/>
    <circle cx="858" cy="642" r="35" fill="none" stroke="#fff" stroke-width="10"/>

    <!-- Inner green A. -->
    <path d="M627 641 777 939l-20 107-130-239-130 239-20-107Z" fill="#78c92a"/>
  </g>
</svg>
