<svg xmlns="http://www.w3.org/2000/svg" viewBox="0 0 128 128" role="img" aria-label="AndroidClaw">
  <rect width="128" height="128" rx="26" fill="#ffffff"/>
  <g fill="none" stroke-linecap="round">
    <path d="M52 30 44 14" stroke="#68b513" stroke-width="6"/>
    <path d="M76 30 84 14" stroke="#68b513" stroke-width="6"/>
    <path d="M52 30 44 14" stroke="#8fd71f" stroke-width="4"/>
    <path d="M76 30 84 14" stroke="#8fd71f" stroke-width="4"/>
  </g>
  <path d="M35 49a29 29 0 0 1 58 0v4H35z" fill="#8fd71f"/>
  <path d="M35 53h58" stroke="#65af12" stroke-width="2"/>
  <circle cx="54" cy="37" r="4.7" fill="#fff" stroke="#65af12" stroke-width="1"/>
  <circle cx="74" cy="37" r="4.7" fill="#fff" stroke="#65af12" stroke-width="1"/>
  <path d="m64 45-10 3-20 40 8 5 22-33z" fill="#17212b"/>
  <path d="m64 45 10 3 20 40-8 5-22-33z" fill="#17212b"/>
  <path d="M54 48 34 88l8 5 18-38z" fill="#35414b"/>
  <path d="M74 48 94 88l-8 5-18-38z" fill="#35414b"/>
  <path d="m34 88-9 12 3 16 15 10 6-21-7-12z" fill="#27323d"/>
  <path d="m94 88 9 12-3 16-15 10-6-21 7-12z" fill="#27323d"/>
  <path d="m25 100-8 14 8 11 18 1-15-10z" fill="#111820"/>
  <path d="m103 100 8 14-8 11-18 1 15-10z" fill="#111820"/>
  <circle cx="34" cy="74" r="11" fill="#0c1218"/>
  <circle cx="34" cy="74" r="8.5" fill="#35414b"/>
  <circle cx="34" cy="74" r="6.2" fill="none" stroke="#13d8e8" stroke-width="2.2"/>
  <circle cx="94" cy="74" r="11" fill="#0c1218"/>
  <circle cx="94" cy="74" r="8.5" fill="#35414b"/>
  <circle cx="94" cy="74" r="6.2" fill="none" stroke="#13d8e8" stroke-width="2.2"/>
  <path d="m40 101-3 7 7 13 3-9-4-9z" fill="#13d8e8"/>
  <path d="m88 101 3 7-7 13-3-9 4-9z" fill="#13d8e8"/>
  <path d="m64 65 15 42-6 5-9-22-9 22-6-5z" fill="#9ee51f" stroke="#65af12" stroke-width="2" stroke-linejoin="round"/>
  <path d="m64 90 9 22-2 4-7-15-7 15-2-4z" fill="#4fa80c"/>
</svg>
