<svg xmlns="http://www.w3.org/2000/svg" viewBox="0 0 128 128" role="img" aria-label="AndroidClaw">
  <defs>
    <linearGradient id="bg" x1="0%" y1="0%" x2="100%" y2="100%">
      <stop offset="0%" stop-color="#1f1d1a"/>
      <stop offset="100%" stop-color="#7a3d22"/>
    </linearGradient>
  </defs>
  <rect width="128" height="128" rx="28" fill="url(#bg)"/>
  <path d="M24 86c14-29 28-47 40-55 5-3 10-5 16-5 4 0 7 1 10 3-18 4-28 17-28 36 0 7 2 14 6 22-5 2-10 3-15 3-11 0-20-1-29-4z" fill="#f5f1ea"/>
  <path d="M86 22c7 4 13 13 16 27-6-3-11-4-16-4-6 0-12 2-18 5 2-13 8-22 18-28z" fill="#f5f1ea" opacity=".92"/>
</svg>
